# xmcd
#
# Track frame offsets:
#	150
#	21610
#	46124
#
# Disc length: 890 seconds
#
# Revision: 1
# Processed by: cddbd v1.5PL3 Copyright (c) Steve Scherf et al.
# Submitted via: MusicWizard 7.0.2
#
DISCID=1f037803
DTITLE=OZZY OZBOURNE - Dreamer
DYEAR=2002
DGENRE=Psychedelic Rock
TTITLE0=Dreamer
TTITLE1=Black Skies
TTITLE2=Dreamer
EXTD=YEAR: 1996
EXTT0=
EXTT1=
EXTT2=
PLAYORDER=
